<?xml version="1.0" encoding="UTF-8"?>
<svg id="Layer_1" data-name="Layer 1" xmlns="http://www.w3.org/2000/svg" xmlns:xlink="http://www.w3.org/1999/xlink" viewBox="0 0 1300 900">
  <defs>
    <style>
      .cls-1 {
        fill: #020f21;
      }

      .cls-2 {
        fill: url(#linear-gradient-2);
      }

      .cls-3 {
        fill: url(#linear-gradient-3);
      }

      .cls-4 {
        fill: url(#linear-gradient);
      }
    </style>
    <linearGradient id="linear-gradient" x1="443.06" y1="433.66" x2="493.89" y2="470.55" gradientUnits="userSpaceOnUse">
      <stop offset="0" stop-color="#5dca89"/>
      <stop offset="1" stop-color="#409060"/>
    </linearGradient>
    <linearGradient id="linear-gradient-2" x1="435.21" y1="444.47" x2="486.03" y2="481.37" xlink:href="#linear-gradient"/>
    <linearGradient id="linear-gradient-3" x1="442.41" y1="434.56" x2="493.23" y2="471.46" xlink:href="#linear-gradient"/>
  </defs>
  <g>
    <path class="cls-1" d="M605.8,454.76v28.84h9.43v-28.84c0-9.03,4.66-12.71,11.7-12.71h8.98v-8.73h-8.98c-12.59,0-21.13,6.95-21.13,21.44Z"/>
    <path class="cls-1" d="M665.17,433.33c-15.57,0-26.47,10.81-26.47,26.19,0,16.15,12.1,25.39,24.9,25.39,5.15,0,9.85-1.5,13.46-4.43v-8.88c-2.92,2.9-7.06,4.58-11.99,4.58-10.11,0-16.85-7.14-16.85-17.06s6.74-17.06,16.85-17.06,16.55,6.84,16.83,16.42c.02.21.02.44.02.64v24.49h9.34v-25.13h-.02c-.45-15.11-11.04-25.15-26.08-25.15Z"/>
    <path class="cls-1" d="M739.02,459.12c0,9.92-6.76,17.06-16.78,17.06s-16.85-7.14-16.85-17.06,6.74-17.06,16.85-17.06c4.89,0,8.98,1.69,11.89,4.56v-9c-3.6-2.8-8.24-4.3-13.37-4.3-12.8,0-24.9,9.22-24.9,25.49,0,15.38,10.93,26.09,26.49,26.09s26.08-10.23,26.08-26.19v-43.63h-9.41v44.03Z"/>
    <rect class="cls-1" x="756.69" y="415.09" width="9.41" height="68.51"/>
    <path class="cls-1" d="M812.21,469.93c-2.88,4.26-7.33,6.25-13.67,6.25-8.54,0-15.07-4.87-16.48-13.6h42.65v-3.47c0-14.88-10.7-25.79-26.17-25.79s-26.38,10.91-26.38,25.79,10.91,25.79,26.38,25.79c11.4,0,20.32-5.85,24.09-14.98h-10.42ZM798.54,442.06c7.93,0,14.37,4.26,16.25,12.1h-32.42c1.87-7.73,8.03-12.1,16.17-12.1Z"/>
    <polygon class="cls-1" points="859.04 450.39 881.47 418.76 869.67 418.76 852.42 444.35 835.26 418.76 823.16 418.76 845.47 450.48 822.06 483.6 833.86 483.6 852.11 456.45 870.35 483.6 882.45 483.6 859.04 450.39"/>
    <path class="cls-1" d="M562.02,458.82h27.55c-3.07,10.81-11.8,16.76-23.6,16.76-14.37,0-24.3-10.3-24.3-24.39s9.92-24.39,24.3-24.39c8.32,0,15.02,3.35,19.19,8.93l8.71-5.18c-6.09-8.11-15.94-13.09-27.9-13.09-20.22,0-34.5,14.3-34.5,33.73s14.28,33.73,34.5,33.73c19.05,0,32.93-12.71,34.41-30.45v-4.96h-38.37v9.32Z"/>
  </g>
  <g>
    <path class="cls-4" d="M513.31,444.82h-23.42c-.89-4.2-2.82-7.99-5.55-11.12-4.56-5.25-11.29-8.58-18.77-8.58v49.75c11.93,0,21.93-8.45,24.31-19.69h12.97c-2.52,18.33-18.29,32.48-37.29,32.48-20.77,0-37.67-16.89-37.67-37.65s16.89-37.67,37.67-37.67c12.06,0,22.82,5.7,29.69,14.56l8.84-5.51c-8.75-11.78-22.76-19.41-38.54-19.41-26.47,0-48.02,21.53-48.02,48.02s21.55,48.01,48.02,48.01,48.02-21.53,48.02-48.01c0-1.76-.09-3.48-.28-5.19Z"/>
    <path class="cls-2" d="M441.12,457.57c0,2.34,1.9,4.24,4.24,4.24h15.25l1.89-8.49h-17.14c-2.34,0-4.24,1.9-4.24,4.24Z"/>
    <path class="cls-3" d="M445.37,438.19c-2.34,0-4.24,1.9-4.24,4.24s1.9,4.24,4.24,4.24h15.25l1.89-8.49h-17.14Z"/>
  </g>
</svg>